<?xml version="1.0" standalone="no"?>
<!DOCTYPE svg PUBLIC "-//W3C//DTD SVG 20010904//EN"
 "http://www.w3.org/TR/2001/REC-SVG-20010904/DTD/svg10.dtd">
<svg version="1.0" xmlns="http://www.w3.org/2000/svg"
 width="512.000000pt" height="512.000000pt" viewBox="0 0 512.000000 512.000000"
 preserveAspectRatio="xMidYMid meet">
<metadata>
Created by potrace 1.16, written by Peter Selinger 2001-2019
</metadata>
<g transform="translate(0.000000,512.000000) scale(0.100000,-0.100000)"
fill="#001c3b" stroke="none">
<path d="M2395 5101 c-201 -57 -368 -228 -419 -427 -21 -80 -21 -228 0 -308
53 -204 226 -376 434 -431 73 -20 226 -19 304 1 202 52 378 228 430 430 21 80
21 228 0 308 -53 205 -225 377 -431 430 -81 21 -240 20 -318 -3z m328 -224
c74 -34 160 -119 195 -194 24 -52 27 -70 27 -163 0 -96 -3 -110 -29 -165 -38
-77 -114 -153 -191 -191 -55 -26 -69 -29 -165 -29 -96 0 -110 3 -165 29 -77
38 -153 114 -191 191 -26 55 -29 69 -29 165 0 93 3 111 26 160 48 101 130 176
232 212 78 28 213 21 290 -15z"/>
<path d="M866 4685 c-185 -51 -336 -201 -392 -390 -27 -91 -25 -231 5 -323
107 -330 480 -485 793 -330 87 43 203 161 244 248 42 88 58 159 57 260 -1 251
-170 471 -413 535 -68 18 -228 18 -294 0z m302 -229 c139 -71 221 -231 192
-374 -24 -116 -98 -209 -208 -260 -82 -39 -193 -38 -277 1 -210 98 -275 349
-137 532 37 49 119 107 177 125 17 5 68 8 115 6 69 -2 95 -8 138 -30z"/>
<path d="M3956 4685 c-89 -25 -178 -77 -246 -145 -112 -112 -164 -238 -163
-400 0 -110 31 -216 87 -303 41 -65 136 -153 203 -190 67 -36 191 -67 268 -67
77 0 201 31 268 67 65 36 166 130 207 193 57 89 83 182 84 295 0 68 -6 119
-18 160 -57 191 -208 340 -396 390 -68 18 -228 18 -294 0z m294 -225 c106 -54
167 -129 195 -239 40 -156 -45 -327 -198 -397 -87 -40 -196 -41 -278 -3 -109
51 -175 131 -204 248 -44 170 65 353 245 412 14 5 63 7 110 6 65 -3 96 -9 130
-27z"/>
<path d="M2130 3780 c-279 -32 -524 -215 -632 -472 -16 -37 -58 -188 -94 -335
-61 -249 -66 -274 -62 -358 3 -75 9 -101 35 -156 52 -111 139 -191 249 -229
32 -11 101 -22 160 -26 57 -4 104 -10 104 -13 0 -3 -47 -472 -105 -1041 -58
-569 -105 -1048 -105 -1063 0 -18 11 -39 29 -58 55 -54 160 -31 175 39 6 27
216 2086 216 2116 0 14 25 16 210 16 230 0 264 6 296 54 24 37 14 104 -21 133
l-26 23 -398 0 c-439 0 -470 4 -535 61 -46 40 -76 104 -76 161 0 25 27 158 60
295 46 191 69 267 100 330 70 143 199 249 365 300 54 16 101 18 485 18 384 0
431 -2 485 -18 166 -51 295 -157 365 -300 31 -63 54 -139 100 -330 33 -137 60
-270 60 -295 0 -95 -67 -179 -167 -208 -112 -33 -141 -25 -677 172 -286 105
-486 184 -486 192 0 9 105 12 490 12 527 0 534 1 561 51 18 35 13 75 -35 274
-50 205 -63 230 -123 241 -65 12 -123 -35 -123 -100 0 -14 11 -71 25 -128 14
-57 25 -109 25 -115 0 -10 -91 -13 -422 -13 -249 0 -438 -4 -459 -10 -48 -13
-115 -73 -130 -115 -12 -32 -29 -47 -29 -26 0 5 20 93 45 195 25 103 45 198
45 211 0 64 -59 113 -122 101 -64 -12 -73 -31 -138 -299 -33 -136 -60 -264
-60 -283 0 -69 7 -72 650 -308 327 -120 598 -221 602 -225 4 -3 57 -496 118
-1094 60 -598 114 -1097 120 -1107 17 -31 52 -50 93 -50 51 0 76 15 93 55 12
30 3 137 -91 1066 -58 569 -105 1043 -105 1055 0 19 7 22 85 28 189 15 315 98
388 255 27 57 32 80 35 161 3 89 -1 111 -66 370 -75 302 -104 377 -192 493
-98 130 -257 234 -425 279 -75 20 -108 21 -485 24 -223 1 -439 -1 -480 -6z"/>
<path d="M579 3465 c-139 -28 -264 -94 -363 -192 -82 -81 -132 -157 -176 -268
l-35 -90 0 -555 0 -555 23 -57 c59 -146 174 -247 344 -302 17 -5 18 -47 18
-696 l0 -692 29 -29 c23 -23 38 -29 71 -29 52 0 76 13 95 50 13 25 15 191 15
1350 0 1468 5 1366 -67 1396 -46 20 -86 10 -118 -28 l-25 -30 0 -534 c0 -421
-3 -534 -12 -534 -17 1 -83 51 -108 83 -12 14 -31 48 -43 74 -22 47 -22 54
-22 523 0 519 0 522 62 645 35 68 154 184 225 218 110 53 150 57 555 57 l373
0 32 29 c28 25 33 36 33 75 0 36 -6 51 -28 73 l-27 28 -393 2 c-294 1 -409 -2
-458 -12z"/>
<path d="M3695 3471 c-39 -17 -60 -51 -60 -98 0 -38 5 -49 33 -74 l32 -29 373
0 c404 0 444 -4 555 -57 71 -33 189 -148 225 -218 62 -123 62 -126 62 -645 0
-469 0 -476 -22 -523 -12 -26 -31 -60 -43 -74 -25 -32 -91 -82 -107 -83 -10 0
-13 113 -13 534 l0 534 -25 30 c-32 38 -72 48 -118 28 -72 -30 -67 72 -67
-1396 0 -1159 2 -1325 15 -1350 19 -37 43 -50 95 -50 33 0 48 6 71 29 l29 29
0 692 c0 649 1 691 18 696 170 55 285 156 344 302 23 57 23 59 26 585 3 511 2
532 -18 605 -57 208 -190 371 -375 462 -148 73 -152 74 -605 77 -223 1 -414
-1 -425 -6z"/>
<path d="M2509 1842 l-31 -28 -104 -834 c-57 -459 -104 -854 -104 -877 0 -30
7 -50 26 -72 22 -27 32 -31 74 -31 37 0 53 5 73 26 14 14 28 38 31 52 3 15 27
200 53 411 27 220 50 376 54 365 4 -10 28 -188 54 -394 25 -206 51 -388 57
-403 15 -39 45 -57 96 -57 55 0 102 41 102 90 0 59 -210 1712 -220 1730 -30
56 -111 67 -161 22z"/>
<path d="M943 1656 l-28 -24 -3 -787 -2 -786 29 -30 c39 -39 106 -41 148 -5
l28 24 3 774 c2 811 2 813 -42 843 -33 24 -100 19 -133 -9z"/>
<path d="M4044 1665 c-44 -30 -44 -32 -42 -843 l3 -774 28 -24 c39 -33 105
-33 144 0 l28 24 0 792 0 792 -28 24 c-33 28 -100 33 -133 9z"/>
</g>
</svg>
