<svg width="24" height="24" viewBox="0 0 24 24" fill="none" xmlns="http://www.w3.org/2000/svg">
<g clip-path="url(#clip0_2434_46885)">
<path d="M12 24C5.3736 24 0 18.6264 0 12C0 5.3736 5.3736 0 12 0C18.6264 0 24 5.3736 24 12C24 18.6264 18.6264 24 12 24Z" fill="url(#paint0_linear_2434_46885)"/>
<path d="M11.9983 5.28459C14.1847 5.28459 14.4439 5.29179 15.3079 5.33259C16.1071 5.36859 16.5415 5.50299 16.8295 5.61579C17.2111 5.76459 17.4847 5.94219 17.7703 6.22779C18.0559 6.51339 18.2335 6.78699 18.3823 7.16859C18.4951 7.45659 18.6271 7.89099 18.6655 8.69019C18.7039 9.55419 18.7135 9.81339 18.7135 11.9998C18.7135 14.1862 18.7063 14.4454 18.6655 15.3094C18.6295 16.1086 18.4951 16.543 18.3823 16.831C18.2335 17.2126 18.0559 17.4862 17.7703 17.7718C17.4847 18.0574 17.2111 18.235 16.8295 18.3838C16.5415 18.4966 16.1071 18.6286 15.3079 18.667C14.4439 18.7054 14.1847 18.715 11.9983 18.715C9.81189 18.715 9.55269 18.7078 8.68869 18.667C7.88949 18.631 7.45509 18.4966 7.16709 18.3838C6.78549 18.235 6.51189 18.0574 6.22629 17.7718C5.94069 17.4862 5.76309 17.2126 5.61429 16.831C5.50149 16.543 5.36949 16.1086 5.33109 15.3094C5.29269 14.4454 5.28309 14.1862 5.28309 11.9998C5.28309 9.81339 5.29029 9.55419 5.33109 8.69019C5.36709 7.89099 5.50149 7.45659 5.61429 7.16859C5.76309 6.78699 5.94069 6.51339 6.22629 6.22779C6.51189 5.94219 6.78549 5.76459 7.16709 5.61579C7.45509 5.50299 7.88949 5.37099 8.68869 5.33259C9.55269 5.29179 9.81189 5.28459 11.9983 5.28459ZM11.9983 3.80859C9.77349 3.80859 9.49509 3.81819 8.62149 3.85899C7.75029 3.89979 7.15509 4.03659 6.63189 4.24059C6.09429 4.44699 5.63589 4.72779 5.18229 5.18379C4.72629 5.63979 4.44789 6.09579 4.23669 6.63579C4.03509 7.15659 3.89589 7.75179 3.85509 8.62539C3.81429 9.49899 3.80469 9.77739 3.80469 12.0022C3.80469 14.227 3.81429 14.5054 3.85509 15.379C3.89589 16.2502 4.03269 16.8454 4.23669 17.3686C4.44549 17.9038 4.72629 18.3622 5.18229 18.8158C5.63829 19.2718 6.09429 19.5502 6.63429 19.7614C7.15509 19.963 7.75029 20.1022 8.62389 20.143C9.49749 20.1838 9.77589 20.1934 12.0007 20.1934C14.2255 20.1934 14.5039 20.1838 15.3775 20.143C16.2487 20.1022 16.8439 19.9654 17.3671 19.7614C17.9023 19.5526 18.3607 19.2718 18.8143 18.8158C19.2703 18.3598 19.5487 17.9038 19.7599 17.3638C19.9615 16.843 20.1007 16.2478 20.1415 15.3742C20.1823 14.5006 20.1919 14.2222 20.1919 11.9974C20.1919 9.77259 20.1823 9.49419 20.1415 8.62059C20.1007 7.74939 19.9639 7.15419 19.7599 6.63099C19.5511 6.09579 19.2703 5.63739 18.8143 5.18379C18.3583 4.72779 17.9023 4.44939 17.3623 4.23819C16.8415 4.03659 16.2463 3.89739 15.3727 3.85659C14.5015 3.81819 14.2231 3.80859 11.9983 3.80859Z" fill="white"/>
<path d="M12.0041 7.79297C9.68087 7.79297 7.79688 9.67697 7.79688 12.0002C7.79688 14.3234 9.68087 16.2074 12.0041 16.2074C14.3273 16.2074 16.2113 14.3234 16.2113 12.0002C16.2113 9.67697 14.3273 7.79297 12.0041 7.79297ZM12.0041 14.7314C10.4969 14.7314 9.27287 13.5098 9.27287 12.0002C9.27287 10.4906 10.4969 9.26897 12.0041 9.26897C13.5113 9.26897 14.7353 10.4906 14.7353 12.0002C14.7353 13.5098 13.5113 14.7314 12.0041 14.7314Z" fill="white"/>
<path d="M16.3746 8.61058C16.9181 8.61058 17.3586 8.17003 17.3586 7.62658C17.3586 7.08313 16.9181 6.64258 16.3746 6.64258C15.8312 6.64258 15.3906 7.08313 15.3906 7.62658C15.3906 8.17003 15.8312 8.61058 16.3746 8.61058Z" fill="white"/>
</g>
<defs>
<linearGradient id="paint0_linear_2434_46885" x1="3.51472" y1="20.4853" x2="20.4853" y2="3.51472" gradientUnits="userSpaceOnUse">
<stop stop-color="#FFD521"/>
<stop offset="0.0551048" stop-color="#FFD020"/>
<stop offset="0.1241" stop-color="#FEC01E"/>
<stop offset="0.2004" stop-color="#FCA71B"/>
<stop offset="0.2821" stop-color="#FA8316"/>
<stop offset="0.3681" stop-color="#F85510"/>
<stop offset="0.4563" stop-color="#F51E09"/>
<stop offset="0.5" stop-color="#F30005"/>
<stop offset="0.5035" stop-color="#F20007"/>
<stop offset="0.5966" stop-color="#E1003B"/>
<stop offset="0.6879" stop-color="#D30067"/>
<stop offset="0.7757" stop-color="#C70088"/>
<stop offset="0.8589" stop-color="#BF00A0"/>
<stop offset="0.9357" stop-color="#BB00AF"/>
<stop offset="1" stop-color="#B900B4"/>
</linearGradient>
<clipPath id="clip0_2434_46885">
<rect width="24" height="24" fill="white"/>
</clipPath>
</defs>
</svg>
