<?xml version="1.0" standalone="no"?>
<!DOCTYPE svg PUBLIC "-//W3C//DTD SVG 20010904//EN"
 "http://www.w3.org/TR/2001/REC-SVG-20010904/DTD/svg10.dtd">
<svg version="1.0" xmlns="http://www.w3.org/2000/svg"
 width="512.000000pt" height="512.000000pt" viewBox="0 0 512.000000 512.000000"
 preserveAspectRatio="xMidYMid meet">
<metadata>
Created by potrace 1.16, written by Peter Selinger 2001-2019
</metadata>
<g transform="translate(0.000000,512.000000) scale(0.100000,-0.100000)"
fill="#001c3b" stroke="none">
<path d="M4370 5100 c-19 -19 -20 -33 -20 -434 l0 -414 -28 -10 c-43 -15 -103
-72 -123 -117 -16 -35 -19 -69 -19 -272 l0 -233 -201 0 -201 0 35 40 c124 136
160 389 81 556 -32 67 -108 136 -182 165 -81 32 -233 32 -314 0 -74 -29 -150
-98 -182 -165 -79 -167 -43 -420 81 -556 19 -22 31 -40 27 -41 -5 0 -65 -4
-134 -8 -206 -11 -264 -49 -492 -318 -119 -141 -132 -153 -185 -173 -100 -37
-453 -161 -648 -226 l-189 -64 -273 0 -272 0 39 56 c130 186 127 467 -7 601
-80 80 -214 117 -344 95 -195 -34 -299 -166 -299 -381 0 -130 40 -255 108
-336 l25 -30 -86 -7 c-211 -16 -362 -107 -402 -241 -23 -78 -22 -962 1 -1035
32 -97 134 -196 229 -220 l30 -8 5 -321 c5 -298 6 -322 24 -342 26 -28 79 -28
106 1 20 22 20 30 20 884 0 813 -1 863 -18 884 -25 31 -89 31 -114 0 -17 -21
-18 -55 -18 -487 l0 -465 -31 19 c-18 10 -46 35 -63 56 l-31 39 -3 470 c-3
461 -2 470 18 503 23 37 63 65 131 92 40 16 107 18 664 23 l620 5 204 73 c136
48 211 70 227 66 32 -8 74 -59 74 -90 0 -51 -44 -78 -260 -155 l-205 -73 -160
-6 c-145 -5 -165 -8 -216 -32 -72 -33 -134 -94 -168 -167 -26 -55 -26 -60 -29
-301 -3 -228 -2 -247 15 -269 10 -12 144 -96 298 -185 l280 -162 3 -231 2
-232 27 -20 c50 -40 106 -16 118 51 12 63 1 504 -13 520 -6 8 -140 89 -297
179 l-285 164 0 190 c0 178 1 194 23 235 12 24 39 58 60 74 l39 31 166 6 167
6 210 76 c116 42 343 117 505 167 162 50 308 98 325 107 16 8 58 43 93 76 l62
61 0 -826 0 -827 22 -15 c29 -20 67 -20 96 0 l22 15 0 943 c0 901 -1 944 -18
959 -10 10 -35 17 -55 17 -34 0 -44 -9 -153 -129 -74 -82 -129 -135 -152 -145
-45 -19 -363 -119 -367 -114 -1 2 -8 27 -14 57 -6 30 -20 69 -31 86 l-19 31
141 49 c78 28 159 62 179 77 20 15 98 98 173 185 74 87 159 176 187 197 85 65
91 66 687 66 590 0 568 -2 608 64 17 28 20 59 24 282 5 274 6 274 65 294 27 9
40 8 65 -5 59 -30 61 -50 58 -420 -3 -316 -4 -334 -23 -355 -11 -12 -27 -26
-37 -31 -9 -5 -104 -13 -210 -18 -210 -10 -250 -19 -323 -72 -50 -36 -106
-113 -127 -174 -10 -30 -13 -115 -13 -337 0 -284 1 -298 20 -317 11 -10 147
-92 303 -182 l282 -163 0 -277 c0 -264 1 -277 21 -303 26 -33 79 -36 109 -6
19 19 20 33 20 340 0 292 -2 322 -18 338 -9 9 -146 91 -304 182 l-288 165 0
235 c0 142 5 251 11 275 15 53 82 120 134 133 22 6 121 13 220 17 204 8 251
21 306 83 59 67 59 67 59 484 0 349 -2 387 -19 423 -19 43 -85 109 -120 120
-20 6 -21 12 -21 196 l0 189 281 0 c327 0 339 3 339 79 0 20 -15 60 -37 101
l-37 67 37 71 c41 78 47 129 19 155 -17 15 -57 17 -365 17 -334 0 -348 -1
-367 -20z m540 -160 c-25 -49 -25 -86 0 -127 l20 -33 -215 0 -215 0 0 100 0
100 215 0 215 0 -20 -40z m-1221 -717 c70 -44 96 -104 95 -218 -1 -117 -28
-190 -94 -256 -119 -119 -267 -71 -341 111 -33 81 -33 217 0 283 25 52 77 93
133 108 61 15 158 2 207 -28z m-2724 -794 c153 -42 200 -237 102 -423 -70
-132 -195 -164 -293 -74 -137 126 -144 406 -12 474 68 35 132 42 203 23z"/>
<path d="M3420 2290 c-19 -19 -20 -33 -20 -549 0 -519 0 -529 21 -555 26 -33
77 -36 105 -5 18 20 19 47 24 474 l5 453 227 -126 228 -127 0 -190 c0 -220 4
-235 69 -235 26 0 44 7 57 21 18 19 19 39 19 250 0 215 -1 230 -20 248 -11 10
-157 96 -325 190 -322 181 -350 191 -390 151z"/>
<path d="M856 1639 l-26 -20 0 -470 c0 -456 1 -470 20 -489 27 -27 81 -26 106
1 18 20 19 44 22 405 1 211 4 384 6 384 2 0 101 -54 220 -121 l216 -121 0
-139 c0 -135 1 -141 25 -164 31 -32 69 -32 100 0 25 24 25 27 25 198 0 152 -2
177 -17 195 -24 27 -625 362 -651 362 -10 0 -31 -9 -46 -21z"/>
<path d="M3750 1150 c-18 -18 -20 -33 -20 -135 l0 -115 -591 0 c-590 0 -620
-2 -641 -34 -4 -6 -8 -53 -8 -103 l0 -93 -606 -2 -606 -3 -19 -24 c-16 -20
-19 -40 -19 -132 l0 -109 -603 0 c-572 0 -605 -1 -620 -18 -14 -16 -17 -44
-17 -184 0 -186 4 -198 72 -198 59 0 68 20 68 148 l0 112 550 0 550 0 0 -110
c0 -97 2 -112 20 -130 27 -27 83 -27 110 0 19 19 20 33 20 260 l0 240 550 0
550 0 0 -243 c0 -273 1 -277 72 -277 69 0 68 -6 68 393 l0 357 550 0 550 0 0
-355 c0 -342 1 -356 20 -375 27 -27 83 -27 110 0 19 19 20 33 20 515 l0 495
550 0 550 0 0 -498 c0 -471 1 -500 18 -515 25 -23 85 -22 105 1 15 17 17 71
17 569 0 520 -1 551 -18 566 -17 15 -78 17 -675 17 -644 0 -657 0 -677 -20z"/>
</g>
</svg>
