<?xml version="1.0" standalone="no"?>
<!DOCTYPE svg PUBLIC "-//W3C//DTD SVG 20010904//EN"
 "http://www.w3.org/TR/2001/REC-SVG-20010904/DTD/svg10.dtd">
<svg version="1.0" xmlns="http://www.w3.org/2000/svg"
 width="512.000000pt" height="512.000000pt" viewBox="0 0 512.000000 512.000000"
 preserveAspectRatio="xMidYMid meet">
<metadata>
Created by potrace 1.16, written by Peter Selinger 2001-2019
</metadata>
<g transform="translate(0.000000,512.000000) scale(0.100000,-0.100000)"
fill="#001c3b" stroke="none">
<path d="M1508 4900 c-120 -21 -211 -74 -238 -140 -9 -23 -29 -39 -74 -62
-183 -92 -327 -245 -404 -431 -34 -81 -62 -204 -62 -272 0 -33 -4 -45 -15 -45
-8 0 -32 -17 -53 -38 -89 -89 -76 -228 27 -293 25 -16 57 -29 71 -29 22 0 27
-6 38 -47 19 -73 87 -201 142 -270 46 -57 131 -136 189 -174 24 -15 23 -16
-69 -48 -214 -75 -383 -183 -555 -355 -131 -132 -214 -245 -290 -395 -101
-202 -172 -502 -135 -571 5 -10 24 -23 41 -29 23 -8 300 -11 930 -11 l898 0 5
-32 c3 -18 8 -64 11 -103 3 -38 11 -97 18 -131 l13 -60 -82 -11 c-110 -15
-184 -52 -260 -127 -90 -91 -134 -200 -134 -335 0 -125 62 -224 156 -250 24
-7 171 -11 387 -11 l348 0 75 -66 c176 -153 410 -274 637 -329 95 -23 102 -24
170 -9 174 36 362 117 527 225 194 127 416 381 517 590 l38 78 227 3 c282 4
268 -4 279 150 8 119 4 106 80 268 93 198 89 164 89 797 0 533 -1 555 -20 593
-30 58 -81 93 -146 98 l-54 4 0 117 c0 126 -14 175 -61 218 -33 30 -91 53
-133 53 -28 0 -35 4 -40 25 -9 35 -65 96 -103 111 -43 18 -137 18 -172 0 -30
-16 -91 -80 -91 -96 0 -6 -19 -10 -43 -10 -56 0 -123 -35 -161 -83 l-31 -39
-3 -150 c-3 -110 -7 -148 -15 -145 -7 3 -160 69 -342 147 -181 78 -349 149
-372 157 l-43 15 -460 -197 -461 -197 -87 40 c-48 22 -118 51 -154 63 l-67 21
57 42 c129 95 247 260 292 405 15 48 22 57 46 62 16 3 43 13 59 21 113 59 126
226 26 311 -18 15 -36 27 -40 27 -5 0 -14 42 -20 92 -26 202 -96 343 -246 494
-82 82 -116 108 -185 144 -75 38 -89 49 -113 91 -17 32 -42 57 -72 74 -76 45
-203 69 -287 55z m180 -193 c34 -16 34 -32 2 -279 -20 -159 -22 -191 -11 -212
17 -31 60 -49 95 -40 50 12 61 41 81 201 10 81 21 151 25 156 9 11 138 -82
183 -132 103 -114 151 -220 181 -398 l6 -33 -100 0 -100 0 0 188 c-1 196 -3
207 -47 230 -35 19 -63 14 -94 -17 l-29 -29 0 -186 0 -186 -310 0 -310 0 0
184 c0 101 -3 192 -6 201 -8 19 -55 45 -84 45 -12 0 -35 -13 -51 -29 l-29 -29
0 -186 0 -186 -95 0 -95 0 0 28 c0 52 39 182 75 250 59 112 155 215 254 270
l39 22 17 -138 c9 -75 21 -152 27 -170 24 -79 141 -77 160 3 3 12 -7 115 -22
230 -15 116 -25 215 -23 222 6 14 76 41 118 45 39 4 109 -8 143 -25z m671
-916 c45 -29 -11 -31 -788 -31 -433 0 -791 3 -794 7 -4 3 -2 12 4 20 9 11 150
13 788 13 427 0 782 -4 790 -9z m-199 -251 c-76 -193 -255 -342 -462 -384
-146 -30 -267 -14 -408 55 -112 55 -229 170 -283 278 -20 41 -37 80 -37 87 0
12 100 14 605 14 l605 0 -20 -50z m2274 -156 c3 -9 6 -228 6 -487 0 -470 0
-471 22 -494 24 -26 82 -31 110 -9 35 26 38 62 38 456 0 259 3 391 10 395 6 4
17 1 25 -5 13 -11 15 -81 15 -467 l0 -454 25 -24 c30 -31 83 -33 116 -6 24 19
24 20 29 293 5 265 6 273 25 273 20 0 20 -8 23 -515 2 -346 -1 -530 -8 -560
-6 -25 -38 -102 -70 -171 -61 -131 -90 -222 -90 -283 l0 -36 -243 0 -243 0
-17 74 c-34 158 -127 313 -358 596 -169 206 -269 337 -269 350 0 16 90 11 118
-6 15 -9 53 -51 84 -94 90 -125 166 -168 240 -137 114 48 138 190 138 828 0
298 3 368 13 372 35 13 36 -5 39 -402 l3 -393 24 -19 c32 -26 89 -25 118 3
l23 21 0 452 c0 248 3 455 7 458 12 13 41 7 47 -9z m-764 -407 l315 -135 3
-134 c3 -146 -12 -400 -26 -424 -7 -13 -18 -2 -55 49 -89 124 -163 163 -296
155 -139 -9 -251 -70 -251 -137 0 -43 90 -172 315 -451 295 -366 363 -483 372
-635 2 -44 9 -90 15 -102 11 -23 55 -43 94 -43 13 0 24 -4 24 -8 0 -20 -116
-191 -181 -269 -161 -191 -378 -336 -629 -419 -57 -19 -105 -28 -145 -28 -106
1 -307 79 -465 181 l-75 48 136 5 c129 5 138 6 184 35 36 22 57 45 77 84 l28
53 0 672 c0 437 -4 684 -11 709 -13 47 -61 102 -111 128 -37 19 -56 20 -322
17 l-283 -3 -40 -28 c-22 -15 -52 -50 -67 -76 l-26 -49 0 -318 c0 -189 -4
-334 -10 -356 -11 -37 -54 -98 -70 -98 -4 0 -16 44 -27 98 -16 87 -18 155 -18
647 l0 549 550 236 550 236 65 -27 c36 -15 207 -88 380 -162z m-1940 -18 c97
-11 215 -40 298 -71 l56 -21 -54 -26 c-32 -15 -60 -37 -67 -51 -8 -16 -13 -73
-13 -157 l0 -133 -520 0 -520 0 0 148 0 149 88 41 c232 109 488 152 732 121z
m-990 -430 l0 -141 29 -29 29 -29 576 0 576 0 0 -235 0 -235 -660 0 -660 0 0
362 0 362 48 43 c26 23 50 42 55 43 4 0 7 -63 7 -141z m-290 -419 l0 -250
-100 0 -101 0 7 38 c13 74 67 229 109 312 44 88 78 150 83 150 1 0 2 -112 2
-250z m2480 31 c5 -11 10 -42 10 -70 l0 -51 -260 0 -260 0 0 58 c0 32 5 63 12
70 9 9 78 12 250 12 224 0 238 -1 248 -19z m10 -800 l0 -510 -22 -15 c-20 -14
-94 -16 -605 -16 -582 0 -583 0 -604 21 -19 19 -21 29 -16 90 10 120 59 199
153 245 47 23 72 28 188 34 147 7 188 21 264 86 96 82 122 167 122 407 l0 167
260 0 260 0 0 -509z"/>
</g>
</svg>
