<?xml version="1.0" standalone="no"?>
<!DOCTYPE svg PUBLIC "-//W3C//DTD SVG 20010904//EN"
 "http://www.w3.org/TR/2001/REC-SVG-20010904/DTD/svg10.dtd">
<svg version="1.0" xmlns="http://www.w3.org/2000/svg"
 width="512.000000pt" height="512.000000pt" viewBox="0 0 512.000000 512.000000"
 preserveAspectRatio="xMidYMid meet">
<metadata>
Created by potrace 1.16, written by Peter Selinger 2001-2019
</metadata>
<g transform="translate(0.000000,512.000000) scale(0.100000,-0.100000)"
fill="#001c3b" stroke="none">
<path d="M2343 4703 c-92 -98 -451 -478 -796 -845 l-628 -667 -367 -3 c-340
-3 -370 -4 -406 -22 -52 -26 -104 -79 -127 -130 -18 -39 -19 -94 -19 -1310 0
-944 3 -1279 12 -1308 15 -50 78 -122 132 -151 l41 -22 2375 0 2375 0 40 22
c53 28 99 78 124 133 20 44 21 59 21 1320 0 1222 -1 1277 -19 1316 -23 51 -75
104 -127 130 -36 17 -69 19 -425 24 l-386 5 -773 820 c-424 451 -783 830 -796
843 -52 47 -67 38 -251 -155z m990 -823 l646 -685 -714 -3 c-392 -1 -1039 -1
-1436 0 l-723 3 718 762 718 763 73 -78 c40 -42 363 -385 718 -762z m-2591
-1009 c141 -89 105 -297 -59 -340 -128 -34 -258 99 -223 228 33 123 175 180
282 112z m3817 -1 c61 -31 111 -105 111 -165 0 -56 -56 -142 -109 -169 -130
-67 -281 34 -269 180 11 133 151 214 267 154z m-3002 -141 c7 -7 22 -49 34
-95 l22 -84 1159 0 1159 0 25 -25 c15 -15 23 -32 20 -43 -3 -9 -73 -306 -155
-660 -82 -354 -155 -650 -162 -658 -10 -12 -132 -14 -830 -14 l-819 0 6 -28
c4 -15 17 -62 28 -105 l21 -79 53 -17 c58 -20 119 -72 128 -108 l6 -23 539 0
c467 0 539 2 539 15 0 24 62 87 105 106 82 37 170 16 233 -55 136 -155 -45
-393 -233 -307 -43 19 -91 68 -106 108 l-9 23 -530 0 -530 0 -9 -23 c-26 -69
-111 -127 -186 -127 -102 0 -205 100 -205 200 0 40 25 96 61 135 l40 44 -26
98 c-20 76 -428 1526 -451 1606 -5 15 -21 17 -160 17 -87 0 -164 5 -174 10
-34 18 -44 48 -25 76 l15 24 203 0 c139 0 207 -4 214 -11z"/>
<path d="M581 2764 c-27 -35 -26 -67 3 -100 50 -59 136 -25 136 52 0 47 -29
74 -79 74 -31 0 -44 -6 -60 -26z"/>
<path d="M4420 2760 c-25 -25 -26 -80 -2 -109 9 -11 31 -24 49 -27 27 -5 37
-1 64 25 26 27 30 37 25 64 -3 18 -16 40 -27 50 -29 23 -84 22 -109 -3z"/>
<path d="M1650 2429 c0 -7 9 -43 20 -80 l21 -69 184 0 185 0 0 80 0 80 -205 0
c-147 0 -205 -3 -205 -11z"/>
<path d="M2170 2360 l0 -80 155 0 155 0 0 80 0 80 -155 0 -155 0 0 -80z"/>
<path d="M2590 2360 l0 -80 155 0 155 0 0 80 0 80 -155 0 -155 0 0 -80z"/>
<path d="M3010 2360 l0 -80 160 0 160 0 0 80 0 80 -160 0 -160 0 0 -80z"/>
<path d="M3440 2360 l0 -80 188 0 188 0 17 73 c10 39 17 75 17 80 0 4 -92 7
-205 7 l-205 0 0 -80z"/>
<path d="M1720 2168 c0 -2 17 -61 38 -133 l38 -130 132 -3 132 -3 0 136 0 135
-170 0 c-93 0 -170 -1 -170 -2z"/>
<path d="M2170 2035 l0 -135 155 0 155 0 0 135 0 135 -155 0 -155 0 0 -135z"/>
<path d="M2590 2035 l0 -135 155 0 155 0 0 135 0 135 -155 0 -155 0 0 -135z"/>
<path d="M3010 2035 l0 -135 160 0 160 0 0 135 0 135 -160 0 -160 0 0 -135z"/>
<path d="M3440 2035 l0 -135 144 0 144 0 26 113 c15 61 29 122 32 135 l6 22
-176 0 -176 0 0 -135z"/>
<path d="M1832 1778 c3 -7 20 -68 38 -135 l33 -123 79 0 78 0 0 135 0 135
-116 0 c-89 0 -115 -3 -112 -12z"/>
<path d="M2170 1655 l0 -135 155 0 155 0 0 135 0 135 -155 0 -155 0 0 -135z"/>
<path d="M2590 1655 l0 -135 155 0 155 0 0 135 0 135 -155 0 -155 0 0 -135z"/>
<path d="M3010 1655 l0 -135 160 0 160 0 0 135 0 135 -160 0 -160 0 0 -135z"/>
<path d="M3440 1655 l0 -135 100 0 c95 0 100 1 105 23 3 12 16 70 30 129 14
59 25 110 25 113 0 3 -58 5 -130 5 l-130 0 0 -135z"/>
<path d="M1940 1403 c0 -5 8 -37 18 -73 l19 -65 41 -3 42 -3 0 75 0 76 -60 0
c-33 0 -60 -3 -60 -7z"/>
<path d="M2170 1335 l0 -75 155 0 155 0 0 75 0 75 -155 0 -155 0 0 -75z"/>
<path d="M2590 1335 l0 -75 155 0 155 0 0 75 0 75 -155 0 -155 0 0 -75z"/>
<path d="M3010 1335 l0 -75 160 0 160 0 0 75 0 75 -160 0 -160 0 0 -75z"/>
<path d="M3440 1335 l0 -75 69 0 69 0 16 65 c9 35 16 69 16 75 0 6 -33 10 -85
10 l-85 0 0 -75z"/>
<path d="M2003 796 c-61 -53 -21 -156 62 -156 21 0 44 9 62 24 61 53 21 156
-62 156 -21 0 -44 -9 -62 -24z"/>
<path d="M3453 796 c-61 -53 -21 -156 62 -156 21 0 44 9 62 24 61 53 21 156
-62 156 -21 0 -44 -9 -62 -24z"/>
</g>
</svg>
