<?xml version="1.0" standalone="no"?>
<!DOCTYPE svg PUBLIC "-//W3C//DTD SVG 20010904//EN"
 "http://www.w3.org/TR/2001/REC-SVG-20010904/DTD/svg10.dtd">
<svg version="1.0" xmlns="http://www.w3.org/2000/svg"
 width="512.000000pt" height="512.000000pt" viewBox="0 0 512.000000 512.000000"
 preserveAspectRatio="xMidYMid meet">
<metadata>
Created by potrace 1.16, written by Peter Selinger 2001-2019
</metadata>
<g transform="translate(0.000000,512.000000) scale(0.100000,-0.100000)"
fill="#001c3b" stroke="none">
<path d="M1010 4120 c-19 -19 -20 -33 -20 -212 l0 -193 -31 55 c-59 109 -187
210 -264 210 -58 0 -94 -67 -65 -121 6 -10 32 -30 59 -44 54 -27 124 -100 140
-145 l10 -30 -337 0 c-204 0 -352 -4 -375 -11 -45 -12 -100 -58 -116 -96 -8
-21 -11 -351 -9 -1239 l3 -1211 27 -35 c56 -74 -120 -68 2001 -68 l1906 0 20
26 c26 33 27 75 2 105 l-19 24 -1888 3 c-1491 2 -1890 5 -1896 15 -7 10 -12
1207 -5 1207 1 0 25 -7 52 -16 68 -21 260 -29 373 -15 52 6 205 34 340 61 136
27 292 55 347 61 184 21 406 -7 733 -92 108 -29 263 -69 343 -90 226 -58 336
-72 518 -67 184 6 244 18 616 124 402 115 476 128 735 128 184 1 231 -2 325
-21 127 -26 247 -65 358 -116 l77 -36 0 -555 c0 -305 -3 -561 -6 -570 -5 -14
-47 -16 -366 -16 -295 0 -364 -3 -387 -15 -47 -24 -55 -74 -20 -119 l21 -27
402 3 403 3 35 27 c73 56 68 -40 68 1298 0 1317 4 1230 -60 1283 -17 15 -47
31 -68 37 -22 6 -173 10 -374 10 l-337 0 10 30 c16 45 86 118 140 145 27 14
53 34 59 44 29 55 -7 121 -66 121 -76 0 -204 -102 -263 -210 l-31 -55 0 193
c0 179 -1 193 -20 212 -26 26 -80 26 -111 1 -23 -19 -24 -24 -27 -201 l-3
-181 -38 58 c-118 183 -330 249 -319 100 3 -35 8 -45 36 -62 79 -48 119 -84
150 -135 l33 -55 -517 -3 c-285 -1 -520 0 -523 3 -9 10 31 75 71 116 21 21 57
48 81 59 44 21 67 52 67 91 0 31 -44 69 -80 69 -75 0 -199 -96 -259 -201 l-31
-54 0 181 c0 168 -1 183 -21 208 -16 20 -29 26 -59 26 -30 0 -43 -6 -59 -26
-20 -25 -21 -40 -21 -208 l0 -181 -31 54 c-60 105 -184 201 -259 201 -36 0
-80 -38 -80 -70 0 -38 28 -78 64 -90 43 -14 109 -76 136 -129 11 -22 20 -43
20 -46 0 -3 -83 -5 -185 -5 -215 0 -240 -6 -251 -66 -5 -27 -2 -42 13 -62 l20
-27 1509 -2 c1405 -3 1510 -4 1522 -20 8 -11 12 -56 12 -135 l0 -118 -2410 0
-2410 0 0 116 c0 63 5 124 10 135 10 19 29 19 754 19 l743 0 21 23 c27 29 28
77 3 108 -19 23 -25 24 -205 29 l-187 5 33 55 c31 51 71 87 150 135 28 17 33
27 36 62 11 149 -201 83 -319 -100 l-38 -58 -3 181 c-3 177 -4 182 -27 201
-31 25 -85 25 -111 -1z m3960 -1364 l0 -293 -82 33 c-202 81 -366 113 -618
121 -274 9 -427 -17 -883 -148 -301 -87 -414 -109 -567 -109 -161 0 -243 15
-590 105 -347 91 -427 109 -555 129 -260 39 -395 32 -778 -44 -137 -27 -288
-55 -335 -61 -121 -16 -271 -7 -349 22 l-63 23 0 258 0 258 2410 0 2410 0 0
-294z"/>
<path d="M4039 2185 c-57 -31 -74 -93 -38 -139 48 -61 159 -8 159 76 0 63 -62
95 -121 63z"/>
<path d="M2177 1980 c-31 -27 -37 -39 -37 -71 0 -26 7 -46 20 -59 13 -13 33
-20 59 -20 32 0 44 6 71 37 27 30 31 42 26 71 -3 20 -11 42 -19 49 -7 8 -29
16 -49 19 -29 5 -41 1 -71 -26z"/>
<path d="M1014 1990 c-34 -13 -64 -59 -64 -96 0 -47 29 -74 79 -74 32 0 44 6
70 35 17 20 31 44 31 55 0 32 -21 67 -47 79 -28 13 -40 13 -69 1z"/>
<path d="M1715 1689 c-29 -26 -35 -38 -35 -70 0 -78 79 -107 140 -51 44 39 51
92 17 126 -36 36 -77 34 -122 -5z"/>
<path d="M3225 1689 c-29 -26 -35 -38 -35 -70 0 -79 79 -107 142 -50 27 24 33
36 33 71 0 80 -75 106 -140 49z"/>
<path d="M4314 1686 c-40 -40 -44 -80 -13 -120 16 -20 29 -26 58 -26 83 0 135
112 75 159 -40 31 -80 27 -120 -13z"/>
</g>
</svg>
